<?xml version="1.0" encoding="utf-8"?>
<!-- Generator: Adobe Illustrator 25.3.0, SVG Export Plug-In . SVG Version: 6.00 Build 0)  -->
<svg version="1.1" id="Layer_1" xmlns="http://www.w3.org/2000/svg" xmlns:xlink="http://www.w3.org/1999/xlink" x="0px" y="0px"
	 viewBox="0 0 597.6 842.4" style="enable-background:new 0 0 597.6 842.4;" xml:space="preserve">
<style type="text/css">
	.st0{fill:none;stroke:#000000;stroke-miterlimit:10;}
	.st1{fill:none;stroke:#000000;stroke-width:0.5;stroke-miterlimit:10;}
	.st2{fill:none;}
	.st3{font-family:'ArialMT';}
	.st4{font-size:7px;}
	.st5{enable-background:new    ;}
	.st6{font-size:18px;}
	.st7{fill:#03BEF7;}
	.st8{fill:#9F47FC;}
	.st9{fill:#1515FC;}
</style>
<line class="st0" x1="94" y1="291" x2="159" y2="291"/>
<line class="st0" x1="159" y1="279.5" x2="159" y2="344.5"/>
<line class="st0" x1="158.7" y1="279.5" x2="219.2" y2="314.6"/>
<line class="st0" x1="123.1" y1="386.5" x2="235.1" y2="386.5"/>
<line class="st0" x1="123.1" y1="330.5" x2="123.1" y2="386.5"/>
<line class="st1" x1="161.4" y1="330.5" x2="165.3" y2="330.5"/>
<line class="st0" x1="159" y1="344.4" x2="219.2" y2="314.6"/>
<line class="st0" x1="123.1" y1="330.5" x2="159" y2="330.5"/>
<rect x="161.4" y="287.7" class="st2" width="7.7" height="6"/>
<text transform="matrix(1 0 0 1 161.4249 292.6768)" class="st3 st4">+</text>
<image style="overflow:visible;enable-background:new    ;" width="2000" height="750" xlink:href="349337BE.png"  transform="matrix(-8.872567e-18 4.830000e-02 -4.450000e-02 -8.174517e-18 283.5014 302.5711)">
</image>
<line class="st0" x1="218.3" y1="314.8" x2="283.3" y2="314.8"/>
<line class="st0" x1="338.8" y1="314.8" x2="338.8" y2="396.1"/>
<image style="overflow:visible;enable-background:new    ;" width="2000" height="750" xlink:href="349337C2.png"  transform="matrix(-9.037893e-18 4.920000e-02 -4.530000e-02 -8.321475e-18 283.8183 361.6157)">
</image>
<line class="st0" x1="225.6" y1="386.5" x2="266.8" y2="386.5"/>
<image style="overflow:visible;enable-background:new    ;" width="2029" height="725" xlink:href="349337C5.png"  transform="matrix(4.788221e-02 0 0 4.411508e-02 254.6715 298.8791)">
</image>
<line class="st0" x1="338.4" y1="396.1" x2="357.7" y2="396.1"/>
<line class="st0" x1="358.4" y1="384.6" x2="358.4" y2="449.6"/>
<line class="st0" x1="358.1" y1="384.6" x2="418.5" y2="419.6"/>
<line class="st1" x1="360.8" y1="395.6" x2="364.7" y2="395.6"/>
<line class="st0" x1="358.4" y1="449.5" x2="418.5" y2="419.6"/>
<line class="st0" x1="338.4" y1="435.6" x2="358.4" y2="435.6"/>
<rect x="360.8" y="431.8" class="st2" width="7.7" height="6"/>
<text transform="matrix(1 0 0 1 360.7783 436.7597)" class="st3 st4">+</text>
<line class="st0" x1="338.8" y1="435.6" x2="338.8" y2="526.5"/>
<line class="st0" x1="154.8" y1="447.2" x2="266.8" y2="447.2"/>
<line class="st0" x1="123.1" y1="447.2" x2="154.9" y2="447.2"/>
<image style="overflow:visible;enable-background:new    ;" width="2000" height="750" xlink:href="349337C6.png"  transform="matrix(-9.037893e-18 4.920000e-02 -4.530000e-02 -8.321475e-18 283.8183 426.413)">
</image>
<line class="st0" x1="123.4" y1="446.6" x2="123.4" y2="502.6"/>
<line class="st0" x1="123.1" y1="502.9" x2="158.3" y2="502.9"/>
<line class="st0" x1="158.9" y1="491.4" x2="158.9" y2="556.4"/>
<line class="st0" x1="158.6" y1="491.4" x2="219.1" y2="526.5"/>
<line class="st1" x1="161.4" y1="502.4" x2="165.3" y2="502.4"/>
<line class="st0" x1="158.9" y1="556.3" x2="219.1" y2="526.5"/>
<line class="st0" x1="94" y1="542.4" x2="158.9" y2="542.4"/>
<rect x="161.4" y="538.6" class="st2" width="7.7" height="6"/>
<text transform="matrix(1 0 0 1 161.3659 543.5917)" class="st3 st4">+</text>
<line class="st0" x1="219.1" y1="526.5" x2="266.8" y2="526.5"/>
<line class="st0" x1="266.8" y1="512.2" x2="266.8" y2="526.8"/>
<circle class="st0" cx="90.3" cy="291.7" r="4"/>
<circle class="st0" cx="90.3" cy="542.4" r="4"/>
<image style="overflow:visible;enable-background:new    ;" width="2000" height="750" xlink:href="349337C4.png"  transform="matrix(-4.860000e-02 0 0 -4.470000e-02 351.4597 543.3197)">
</image>
<line class="st0" x1="338.9" y1="526.5" x2="348" y2="526.5"/>
<image style="overflow:visible;enable-background:new    ;" width="2000" height="750" xlink:href="349337C3.png"  transform="matrix(-4.920000e-02 0 0 -4.530000e-02 425.2668 543.5305)">
</image>
<image style="overflow:visible;enable-background:new    ;" width="528" height="497" xlink:href="349337CD.png"  transform="matrix(6.294132e-02 0 0 6.294132e-02 442.3158 525.7672)">
</image>
<line class="st0" x1="412.2" y1="526.5" x2="459.9" y2="526.5"/>
<line class="st0" x1="418.7" y1="419.8" x2="524.3" y2="419.8"/>
<image style="overflow:visible;enable-background:new    ;" width="2009" height="725" xlink:href="349337CE.png"  transform="matrix(4.830420e-02 0 0 4.450388e-02 326.0471 298.7381)">
</image>
<line class="st0" x1="409.7" y1="314.8" x2="459.9" y2="314.8"/>
<line class="st0" x1="459.9" y1="315" x2="459.9" y2="419.6"/>
<rect x="68.3" y="256.3" class="st2" width="89.1" height="26.8"/>
<text transform="matrix(1 0 0 1 68.3224 269.096)" class="st5"><tspan x="0" y="0" class="st3 st6">V1: </tspan><tspan x="32" y="0" class="st7 st3 st6">0 volts</tspan></text>
<polygon class="st2" points="74.5,231.8 86.3,231.8 86.3,231.8 "/>
<rect x="68.3" y="565.8" class="st2" width="89.1" height="26.8"/>
<text transform="matrix(1 0 0 1 68.3223 578.5952)" class="st5"><tspan x="0" y="0" class="st3 st6">V2: </tspan><tspan x="32" y="0" class="st7 st3 st6">0</tspan><tspan x="42" y="0" class="st3 st6"> </tspan><tspan x="47" y="0" class="st7 st3 st6">volts</tspan></text>
<rect x="231.6" y="347.6" class="st2" width="31" height="26.8"/>
<text transform="matrix(1 0 0 1 231.5987 360.3747)" class="st3 st6">R1:         </text>
<text transform="matrix(1 0 0 1 275.9211 355.4986)" class="st8 st3 st6">   0 </text>
<text transform="matrix(1 0 0 1 275.9211 370.4986)" class="st8 st3 st6">ohm</text>
<rect x="289.4" y="290.7" class="st2" width="27.7" height="26.8"/>
<text transform="matrix(1 0 0 1 289.3656 303.4566)" class="st3 st6">R2:          </text>
<text transform="matrix(1 0 0 1 283.2774 264.9695)" class="st8 st3 st6">   0 </text>
<text transform="matrix(1 0 0 1 283.2774 279.9695)" class="st8 st3 st6">ohm</text>
<rect x="363.7" y="292.1" class="st2" width="27.7" height="26.8"/>
<text transform="matrix(1 0 0 1 363.7304 304.8963)" class="st3 st6">R3:          </text>
<text transform="matrix(1 0 0 1 357.6422 266.4091)" class="st8 st3 st6">   0 </text>
<text transform="matrix(1 0 0 1 357.6422 281.4091)" class="st8 st3 st6">ohm</text>
<rect x="288.3" y="543.8" class="st2" width="27.7" height="26.8"/>
<text transform="matrix(1 0 0 1 288.2682 556.5692)" class="st3 st6">R2:          </text>
<text transform="matrix(1 0 0 1 282.9615 575.8995)" class="st8 st3 st6">   0 </text>
<text transform="matrix(1 0 0 1 282.9615 590.8995)" class="st8 st3 st6">ohm</text>
<rect x="233.4" y="471.4" class="st2" width="31" height="26.8"/>
<text transform="matrix(1 0 0 1 233.3685 484.2299)" class="st3 st6">R1:         </text>
<text transform="matrix(1 0 0 1 276.6056 475.5861)" class="st8 st3 st6">   0 </text>
<text transform="matrix(1 0 0 1 276.6056 490.5861)" class="st8 st3 st6">ohm</text>
<rect x="358.5" y="544.6" class="st2" width="27.7" height="26.8"/>
<text transform="matrix(1 0 0 1 358.5525 557.3698)" class="st3 st6">R3:          </text>
<text transform="matrix(1 0 0 1 353.2458 576.7003)" class="st5"><tspan x="0" y="0" class="st3 st6">   </tspan><tspan x="15" y="0" class="st8 st3 st6">0 </tspan></text>
<text transform="matrix(1 0 0 1 353.2458 591.7003)" class="st8 st3 st6">ohm</text>
<rect x="195.6" y="406.2" class="st2" width="60" height="26.8"/>
<text transform="matrix(1 0 0 1 195.6172 418.9506)" class="st3 st6">R gain :         </text>
<rect x="472.5" y="403.7" class="st2" width="60" height="26.8"/>
<text transform="matrix(1 0 0 1 472.4842 416.4487)" class="st3 st6">V out :</text>
<text transform="matrix(1 0 0 1 276.5148 415.9286)" class="st8 st3 st6">   0 </text>
<text transform="matrix(1 0 0 1 276.5148 430.9286)" class="st8 st3 st6">ohm</text>
<text transform="matrix(1 0 0 1 473.2556 442.5997)" class="st9 st3 st6">0 volts</text>
</svg>
